<svg viewBox="0 0 46 46" xmlns="http://www.w3.org/2000/svg" xmlns:xlink="http://www.w3.org/1999/xlink" width="46.000000" height="46.000000" fill="none" customFrame="url(#clipPath_4)">
	<defs>
		<linearGradient id="paint_linear_2" x1="39.2634506" x2="6.73653793" y1="39.2634583" y2="6.73654556" gradientUnits="userSpaceOnUse">
			<stop stop-color="rgb(172,59,97)" offset="0" stop-opacity="1" />
			<stop stop-color="rgb(177,131,162)" offset="1" stop-opacity="1" />
		</linearGradient>
		<clipPath id="clipPath_4">
			<rect width="46.000000" height="46.000000" x="0.000000" y="0.000000" rx="14.000000" fill="rgb(255,255,255)" />
		</clipPath>
		<clipPath id="clipPath_5">
			<rect width="20.000000" height="20.000000" x="13.000000" y="13.000000" fill="rgb(255,255,255)" />
		</clipPath>
	</defs>
	<rect id="Фрейм 111" width="46.000000" height="46.000000" x="0.000000" y="0.000000" rx="14.000000" fill="url(#paint_linear_2)" />
	<g id="map-pin" customFrame="url(#clipPath_5)">
		<rect id="map-pin" width="20.000000" height="20.000000" x="13.000000" y="13.000000" />
		<path id="Вектор 61" d="M23.5008 31.1657C23.405 31.2377 23.2947 31.2882 23.1776 31.3138C23.0605 31.3394 22.9393 31.3394 22.8222 31.3138C22.7051 31.2882 22.5949 31.2377 22.4991 31.1657C20.9491 29.8273 16.3333 25.494 16.3333 21.3332C16.3333 19.9253 16.779 18.5536 17.6065 17.4146C18.434 16.2756 19.6008 15.4278 20.9398 14.9928C22.2788 14.5577 23.7211 14.5577 25.06 14.9928C26.399 15.4278 27.5658 16.2756 28.3934 17.4146C29.2209 18.5536 29.6666 19.9253 29.6666 21.3332C29.6666 25.494 25.0508 29.8273 23.5008 31.1657Z" fill-rule="nonzero" stroke="rgb(255,255,255)" stroke-linecap="round" stroke-linejoin="round" stroke-width="1.666667" />
		<circle id="Эллипс 8" cx="23" cy="21.3334961" r="2.5" stroke="rgb(255,255,255)" stroke-linecap="round" stroke-linejoin="round" stroke-width="1.666667" />
	</g>
</svg>
