<svg width="40" height="34" viewBox="0 0 40 34" fill="none" xmlns="http://www.w3.org/2000/svg">
    <g id="telegram">
        <path d="M36.7527 0.38643L1.31463 14.2583C-0.111463 14.9043 -0.593806 16.1979 0.969943 16.9L10.0613 19.8328L32.0432 6.04268C33.2434 5.17696 34.4722 5.4078 33.4148 6.36015L14.5354 23.712L13.9424 31.0553C14.4917 32.1891 15.4974 32.1944 16.139 31.6308L21.3623 26.6139L30.308 33.4137C32.3857 34.6623 33.5163 33.8565 33.9633 31.568L39.8309 3.36528C40.4401 0.548323 39.4012 -0.692859 36.7527 0.38643Z" fill="white"/>
    </g>
    <g id="gitHub">
        <path fill-rule="evenodd" clip-rule="evenodd" d="M17.5001 1.09375C8.2342 1.09375 0.729248 8.5987 0.729248 17.8646C0.729248 25.2857 5.5299 31.5538 12.1963 33.7759C13.0348 33.9227 13.3493 33.4195 13.3493 32.9793C13.3493 32.581 13.3283 31.2603 13.3283 29.8557C9.11467 30.6314 8.02456 28.8285 7.68914 27.8852C7.50047 27.403 6.68289 25.9146 5.97013 25.5163C5.38315 25.2018 4.54461 24.4262 5.94917 24.4052C7.26987 24.3842 8.21323 25.6211 8.52768 26.1242C10.0371 28.6608 12.4479 27.948 13.4122 27.5078C13.5589 26.4177 13.9992 25.684 14.4813 25.2647C10.7498 24.8454 6.8506 23.399 6.8506 16.9841C6.8506 15.1603 7.50047 13.6509 8.56961 12.477C8.4019 12.0577 7.81492 10.3387 8.73732 8.03268C8.73732 8.03268 10.1419 7.59245 13.3493 9.75169C14.691 9.37435 16.1165 9.18568 17.542 9.18568C18.9675 9.18568 20.393 9.37435 21.7347 9.75169C24.9421 7.57148 26.3467 8.03268 26.3467 8.03268C27.2691 10.3387 26.6821 12.0577 26.5144 12.477C27.5835 13.6509 28.2334 15.1393 28.2334 16.9841C28.2334 23.4199 24.3132 24.8454 20.5817 25.2647C21.1897 25.7888 21.7138 26.7951 21.7138 28.3673C21.7138 30.6104 21.6928 32.4133 21.6928 32.9793C21.6928 33.4195 22.0072 33.9436 22.8458 33.7759C29.4703 31.5538 34.2709 25.2647 34.2709 17.8646C34.2709 8.5987 26.766 1.09375 17.5001 1.09375Z" fill="white"/>
    </g>
    <g id="instagram">
        <path d="M15.6516 2.09998H5.34844C3.55687 2.09998 2.1 3.55628 2.1 5.34715V8.77799V15.6528C2.1 17.4437 3.55687 18.9 5.34844 18.9H15.6516C17.4431 18.9 18.9 17.4437 18.9 15.6528V8.77143V5.34058C18.8934 3.55628 17.4366 2.09998 15.6516 2.09998ZM16.5834 4.03516H16.9575V4.40251V6.88217L14.1159 6.88873L14.1094 4.04172L16.5834 4.03516ZM8.09812 8.77143C8.63625 8.03016 9.50906 7.53816 10.4934 7.53816C11.4778 7.53816 12.3506 8.0236 12.8887 8.77143C13.2431 9.25687 13.4466 9.85382 13.4466 10.4967C13.4466 12.1236 12.1209 13.4552 10.4869 13.4552C8.85281 13.4552 7.54031 12.1236 7.54031 10.4967C7.54031 9.85382 7.75031 9.25687 8.09812 8.77143ZM17.2594 15.6462C17.2594 16.5318 16.5375 17.2534 15.6516 17.2534H5.34844C4.4625 17.2534 3.74062 16.5318 3.74062 15.6462V8.77143H6.2475C6.03094 9.30279 5.90625 9.88662 5.90625 10.4967C5.90625 13.0288 7.96687 15.0887 10.5 15.0887C13.0331 15.0887 15.0937 13.0288 15.0937 10.4967C15.0937 9.88662 14.9691 9.30279 14.7525 8.77143H17.2594V15.6462Z" fill="white"/>
    </g>
    <g id="logo">
        <g fill="#E7717D">
            <path d="M 1105 168 L 719 168 L 719 268 L 797 268 L 813 270 L 821 274 L 829 284 L 830 296 L 828 303 L 819 319 L 655 563 L 381 960 L 365 976 L 354 983 L 341 988 L 322 991 L 283 991 L 283 1091 L 1107 1091 L 1107 898 L 939 898 L 939 941 L 934 961 L 930 969 L 920 982 L 912 988 L 895 995 L 566 996 L 555 993 L 549 986 L 549 979 L 645 838 L 1010 288 L 1024 275 L 1039 269 L 1105 268 Z"/>
            <path d="M 157 168 L 157 269 L 230 270 L 246 276 L 263 291 L 297 344 L 352 436 L 489 676 L 591 527 L 589 521 L 540 442 L 454 299 L 449 287 L 450 276 L 454 272 L 461 269 L 543 268 L 543 168 Z"/>
        </g>
    </g>

</svg>
